<svg width="192" height="88" viewBox="0 0 192 88" fill="none" xmlns="http://www.w3.org/2000/svg">
<g opacity="0.2">
<path opacity="0.6" d="M37.656 17.182C39.476 17.182 41.072 16.23 41.884 14.788L40.75 14.144C40.19 15.208 39 15.908 37.656 15.908C35.36 15.908 33.82 14.242 33.82 12.1C33.82 9.944 35.36 8.278 37.656 8.278C39 8.278 40.19 8.978 40.75 10.056L41.884 9.398C41.058 7.956 39.462 7.018 37.656 7.018C34.66 7.018 32.532 9.272 32.532 12.1C32.532 14.914 34.66 17.182 37.656 17.182ZM51.9816 10H45.9896V11.176H48.3836V17H49.6016V11.176H51.9816V10ZM53.6296 14.06H59.4956C59.5236 13.878 59.5376 13.696 59.5376 13.514C59.5376 11.554 58.1656 9.818 56.0516 9.818C53.8676 9.818 52.3836 11.428 52.3836 13.5C52.3836 15.6 53.8816 17.182 56.1356 17.182C57.5356 17.182 58.5996 16.552 59.2156 15.6L58.1796 15.012C57.8296 15.586 57.1296 16.034 56.1636 16.034C54.8616 16.034 53.8676 15.32 53.6296 14.06ZM56.0516 10.966C57.1016 10.966 58.0956 11.61 58.3056 12.996H53.6296C53.8256 11.778 54.7356 10.966 56.0516 10.966ZM64.8017 9.818C63.6117 9.818 62.7157 10.35 62.1557 11.204V10H60.9377V19.8H62.1557V15.796C62.7157 16.65 63.6117 17.182 64.8017 17.182C66.7477 17.182 68.3437 15.572 68.3437 13.5C68.3437 11.428 66.7477 9.818 64.8017 9.818ZM64.6477 16.006C63.2337 16.006 62.1557 14.928 62.1557 13.5C62.1557 12.072 63.2337 10.994 64.6477 10.994C66.0477 10.994 67.1257 12.072 67.1257 13.5C67.1257 14.928 66.0477 16.006 64.6477 16.006ZM73.661 9.818C72.471 9.818 71.575 10.35 71.015 11.204V10H69.797V19.8H71.015V15.796C71.575 16.65 72.471 17.182 73.661 17.182C75.607 17.182 77.203 15.572 77.203 13.5C77.203 11.428 75.607 9.818 73.661 9.818ZM73.507 16.006C72.093 16.006 71.015 14.928 71.015 13.5C71.015 12.072 72.093 10.994 73.507 10.994C74.907 10.994 75.985 12.072 75.985 13.5C75.985 14.928 74.907 16.006 73.507 16.006ZM84.4524 10V11.204C83.8924 10.35 82.9964 9.818 81.8064 9.818C79.8604 9.818 78.2644 11.428 78.2644 13.5C78.2644 15.572 79.8604 17.182 81.8064 17.182C82.9964 17.182 83.8924 16.65 84.4524 15.796V17H85.6704V10H84.4524ZM81.9604 16.006C80.5604 16.006 79.4824 14.928 79.4824 13.5C79.4824 12.072 80.5604 10.994 81.9604 10.994C83.3744 10.994 84.4524 12.072 84.4524 13.5C84.4524 14.928 83.3744 16.006 81.9604 16.006ZM90.8058 17.182C92.1778 17.182 93.3678 16.454 93.9558 15.362L92.9198 14.76C92.5278 15.488 91.7578 15.978 90.8058 15.978C89.4058 15.978 88.3418 14.9 88.3418 13.5C88.3418 12.086 89.4058 11.008 90.8058 11.008C91.7438 11.008 92.5278 11.498 92.8778 12.24L93.8998 11.652C93.3678 10.546 92.1918 9.818 90.8058 9.818C88.6918 9.818 87.1238 11.428 87.1238 13.5C87.1238 15.572 88.6918 17.182 90.8058 17.182ZM98.3527 17.182C100.397 17.182 102.049 15.572 102.049 13.5C102.049 11.428 100.397 9.818 98.3527 9.818C96.3087 9.818 94.6707 11.428 94.6707 13.5C94.6707 15.572 96.3087 17.182 98.3527 17.182ZM98.3527 15.992C96.9667 15.992 95.8887 14.914 95.8887 13.5C95.8887 12.086 96.9667 11.008 98.3527 11.008C99.7527 11.008 100.831 12.086 100.831 13.5C100.831 14.914 99.7527 15.992 98.3527 15.992ZM104.633 8.95H108.413V7.886H104.633V8.95ZM108.567 10L104.689 14.914V10H103.485V17H104.465L108.343 12.086V17H109.547V10H108.567ZM119.745 10V12.912H116.119V10H114.901V17H116.119V14.074H119.745V17H120.963V10H119.745ZM128.613 10V11.204C128.053 10.35 127.157 9.818 125.967 9.818C124.021 9.818 122.425 11.428 122.425 13.5C122.425 15.572 124.021 17.182 125.967 17.182C127.157 17.182 128.053 16.65 128.613 15.796V17H129.831V10H128.613ZM126.121 16.006C124.721 16.006 123.643 14.928 123.643 13.5C123.643 12.072 124.721 10.994 126.121 10.994C127.535 10.994 128.613 12.072 128.613 13.5C128.613 14.928 127.535 16.006 126.121 16.006ZM141.098 17L137.64 13.388L140.986 10H139.418L136.394 13.094V10H135.176V17H136.394V13.682L139.586 17H141.098ZM146.095 9.818C144.905 9.818 144.009 10.35 143.449 11.204V10H142.231V19.8H143.449V15.796C144.009 16.65 144.905 17.182 146.095 17.182C148.041 17.182 149.637 15.572 149.637 13.5C149.637 11.428 148.041 9.818 146.095 9.818ZM145.941 16.006C144.527 16.006 143.449 14.928 143.449 13.5C143.449 12.072 144.527 10.994 145.941 10.994C147.341 10.994 148.419 12.072 148.419 13.5C148.419 14.928 147.341 16.006 145.941 16.006ZM154.044 12.52H152.308V10H151.09V17H154.044C155.43 17 156.48 16.09 156.48 14.76C156.48 13.43 155.43 12.52 154.044 12.52ZM157.39 10V17H158.608V10H157.39ZM154.044 15.866H152.308V13.64H154.044C154.716 13.64 155.276 14.074 155.276 14.76C155.276 15.446 154.716 15.866 154.044 15.866ZM168.841 10V15.838H165.873V10H164.655V15.838H161.687V10H160.469V17H170.059V10H168.841ZM172.78 14.06H178.646C178.674 13.878 178.688 13.696 178.688 13.514C178.688 11.554 177.316 9.818 175.202 9.818C173.018 9.818 171.534 11.428 171.534 13.5C171.534 15.6 173.032 17.182 175.286 17.182C176.686 17.182 177.75 16.552 178.366 15.6L177.33 15.012C176.98 15.586 176.28 16.034 175.314 16.034C174.012 16.034 173.018 15.32 172.78 14.06ZM175.202 10.966C176.252 10.966 177.246 11.61 177.456 12.996H172.78C172.976 11.778 173.886 10.966 175.202 10.966Z" fill="#31456A"/>
<path d="M14.6673 9.33333V9C14.6673 7.8131 13.9534 6.7085 12.657 5.88973C11.4876 5.1512 9.96322 4.7234 8.33398 4.67197V4H7.66732V4.67197C6.03805 4.7234 4.51368 5.1512 3.34432 5.88977C2.04792 6.7085 1.33398 7.8131 1.33398 9V9.33333H7.66732V12.6667H1.33398V15H2.33398V20H3.00065V17.1381L5.13875 15H7.66732V20H8.33398V15H10.8626L13.0007 17.1381V20H13.6673V15H14.6673V12.6667H8.33398V9.33333H14.6673ZM3.00065 16.1953V15H4.19588L3.00065 16.1953ZM13.0007 16.1953L11.8054 15H13.0007V16.1953ZM14.0007 14.3333H2.00065V13.3333H14.0007V14.3333ZM8.00065 5.33333C8.42865 5.33333 8.86528 5.69557 9.19862 6.32713C9.53125 6.95737 9.73048 7.77837 9.77052 8.66667H6.23078C6.27082 7.77837 6.47005 6.95737 6.80268 6.32713C7.13602 5.69557 7.57265 5.33333 8.00065 5.33333ZM13.9758 8.66667H10.4383C10.3828 7.31437 9.99168 6.15307 9.40792 5.43547C10.4972 5.59637 11.4945 5.94407 12.301 6.4534C13.268 7.06413 13.8517 7.84007 13.9758 8.66667ZM3.70028 6.4534C4.50672 5.94407 5.50408 5.59637 6.59335 5.43547C6.00958 6.15307 5.61852 7.31437 5.56302 8.66667H2.02555C2.14962 7.84007 2.73328 7.06413 3.70028 6.4534Z" fill="#F43838"/>
</g>
<path opacity="0.6" d="M37.656 49.182C39.476 49.182 41.072 48.23 41.884 46.788L40.75 46.144C40.19 47.208 39 47.908 37.656 47.908C35.36 47.908 33.82 46.242 33.82 44.1C33.82 41.944 35.36 40.278 37.656 40.278C39 40.278 40.19 40.978 40.75 42.056L41.884 41.398C41.058 39.956 39.462 39.018 37.656 39.018C34.66 39.018 32.532 41.272 32.532 44.1C32.532 46.914 34.66 49.182 37.656 49.182ZM51.6596 42L49.6436 47.488L47.2496 42H45.9616L48.9996 49.014L48.8876 49.266C48.5236 50.176 47.9356 50.736 46.9976 50.666V51.8C48.3976 51.898 49.5176 51.002 50.1056 49.434L52.9616 42H51.6596ZM58.3887 42V45.346C57.8567 45.584 57.2267 45.71 56.5827 45.71C55.5327 45.71 54.9027 45.332 54.9027 44.254V42H53.6847V44.324C53.6847 46.018 54.7487 46.844 56.4987 46.844C57.1847 46.844 57.8427 46.718 58.3887 46.48V49H59.6067V42H58.3887ZM67.2532 42V43.204C66.6932 42.35 65.7972 41.818 64.6072 41.818C62.6612 41.818 61.0652 43.428 61.0652 45.5C61.0652 47.572 62.6612 49.182 64.6072 49.182C65.7972 49.182 66.6932 48.65 67.2532 47.796V49H68.4712V42H67.2532ZM64.7612 48.006C63.3612 48.006 62.2832 46.928 62.2832 45.5C62.2832 44.072 63.3612 42.994 64.7612 42.994C66.1752 42.994 67.2532 44.072 67.2532 45.5C67.2532 46.928 66.1752 48.006 64.7612 48.006ZM73.6066 49.182C74.9786 49.182 76.1686 48.454 76.7566 47.362L75.7206 46.76C75.3286 47.488 74.5586 47.978 73.6066 47.978C72.2066 47.978 71.1426 46.9 71.1426 45.5C71.1426 44.086 72.2066 43.008 73.6066 43.008C74.5446 43.008 75.3286 43.498 75.6786 44.24L76.7006 43.652C76.1686 42.546 74.9926 41.818 73.6066 41.818C71.4926 41.818 69.9246 43.428 69.9246 45.5C69.9246 47.572 71.4926 49.182 73.6066 49.182ZM83.0578 42H77.0658V43.176H79.4598V49H80.6778V43.176H83.0578V42ZM90.0472 49L86.5892 45.388L89.9352 42H88.3672L85.3432 45.094V42H84.1252V49H85.3432V45.682L88.5352 49H90.0472ZM93.8273 49.182C95.8713 49.182 97.5233 47.572 97.5233 45.5C97.5233 43.428 95.8713 41.818 93.8273 41.818C91.7833 41.818 90.1453 43.428 90.1453 45.5C90.1453 47.572 91.7833 49.182 93.8273 49.182ZM93.8273 47.992C92.4413 47.992 91.3633 46.914 91.3633 45.5C91.3633 44.086 92.4413 43.008 93.8273 43.008C95.2273 43.008 96.3053 44.086 96.3053 45.5C96.3053 46.914 95.2273 47.992 93.8273 47.992ZM105.959 42H104.657L102.459 45.542L100.261 42H98.9592V49H100.163V43.918L102.389 47.502H102.543L104.769 43.918V49H105.959V42Z" fill="#31456A"/>
<g clip-path="url(#clip0)">
<path d="M10.1214 45.3101H11.0256C11.1682 45.3101 11.2837 45.1945 11.2837 45.052C11.2837 44.9094 11.1682 44.7938 11.0256 44.7938H10.1214C9.97884 44.7938 9.86328 44.9094 9.86328 45.052C9.86346 45.1945 9.97884 45.3101 10.1214 45.3101Z" fill="#F43838" stroke="#F43838" stroke-width="0.1"/>
<path d="M15.7419 49.339L15.7493 49.3383L15.7774 49.3355L15.8011 49.3315L15.8238 49.3244L15.8501 49.3145L15.8571 49.3118L15.8699 49.3036L15.8935 49.2887L15.9124 49.2731L15.9305 49.2556L15.9465 49.2363L15.9607 49.216L15.9723 49.1945L15.9826 49.1712L15.9899 49.1477L15.9954 49.1234L15.9982 49.096L16 49.0809L15.9993 49.0732L15.9964 49.0457L15.9925 49.0217L15.9856 48.9993L15.9755 48.9726L15.9728 48.9657L14.1488 45.3109H14.4533L14.4629 45.31L14.4907 45.3072L14.5147 45.3027L14.538 45.2955L14.5639 45.2851L14.5728 45.2816L14.584 45.2743L14.6071 45.259L14.626 45.2435L14.6436 45.2259L14.6596 45.2064L14.6732 45.1861L14.685 45.1644L14.6948 45.1413L14.7022 45.1175L14.7072 45.0937L14.71 45.0661L14.7115 45.0528L14.7106 45.0432L14.7077 45.0155L14.7035 44.9916L14.6962 44.9683L14.6859 44.9426L14.6823 44.9335L12.8706 41.4615H13.1532L13.1628 41.4606L13.1895 41.4579L13.2155 41.4533L13.2357 41.4471L13.2652 41.4354L13.2724 41.4325L13.2812 41.4267L13.309 41.4083L13.323 41.3968L13.3458 41.3742L13.357 41.3605L13.3753 41.3333L13.3829 41.3193L13.3963 41.2878L13.4009 41.2732L13.408 41.2402L13.4098 41.2226L13.4117 41.2035L13.4103 41.1899L13.4085 41.1721L13.4025 41.1385L13.398 41.1243L13.3842 41.0898L13.3819 41.0841L10.84 36.211C10.8258 36.136 10.7797 36.0677 10.7068 36.0297C10.6665 36.0087 10.6231 36.0005 10.5806 36.0016C10.5381 36.0003 10.4948 36.0085 10.4544 36.0297C10.3813 36.0677 10.3353 36.136 10.3212 36.211L7.77991 41.0843L7.7776 41.0901L7.76391 41.1243L7.75947 41.1387L7.75342 41.1717L7.75164 41.19L7.75022 41.2035L7.75218 41.2222L7.75396 41.2402L7.76089 41.2729L7.76551 41.288L7.77867 41.3191L7.78649 41.3335L7.80462 41.3603L7.81618 41.3744L7.83858 41.3966L7.8528 41.4083L7.88053 41.4265L7.88942 41.4323L7.89653 41.4352L7.92604 41.4469L7.94631 41.4531L7.97227 41.4579L7.99876 41.4606L8.00836 41.4615H8.29102L6.47929 44.9335L6.47573 44.9426L6.46542 44.9683L6.45813 44.9916L6.45369 45.0155L6.45084 45.0432L6.44996 45.0528L6.45138 45.0661L6.45404 45.0937L6.4592 45.1175L6.46667 45.1413L6.47644 45.1644L6.48818 45.1861L6.50187 45.2064L6.51804 45.2259L6.53564 45.2434L6.55449 45.259L6.5776 45.2743L6.58862 45.2816L6.59751 45.2851L6.62364 45.2956L6.64676 45.3027L6.67093 45.3072L6.69849 45.31L6.70809 45.3109H7.01244L5.18844 48.9657L5.18578 48.9726L5.17582 48.9989L5.16871 49.0219L5.1648 49.0455L5.16196 49.0736L5.16124 49.0811L5.16284 49.0962L5.16569 49.1241L5.1712 49.1479L5.17867 49.1717L5.1888 49.1947L5.20071 49.2165L5.21476 49.2364L5.23093 49.256L5.24889 49.2731L5.26791 49.2887L5.29138 49.3036L5.30436 49.3118L5.31129 49.3145L5.3376 49.3244L5.36053 49.3315L5.38418 49.3355L5.41227 49.3383L5.41973 49.339H10.3161V51.4841H2.07236V48.3392H3.3136C3.45618 48.3392 3.57173 48.2236 3.57173 48.0811C3.57173 47.9385 3.45618 47.8229 3.3136 47.8229H0.258133C0.115556 47.8231 0 47.9387 0 48.0811C0 48.2235 0.115556 48.3392 0.258133 48.3392H1.55609V51.4841H0.258133C0.115556 51.4841 0 51.5996 0 51.7422C0 51.8848 0.115556 52.0003 0.258133 52.0003H16.7419C16.8844 52.0003 17 51.8848 17 51.7422C17 51.5996 16.8844 51.4841 16.7419 51.4841H10.8318V49.339H15.7419ZM8.24871 45.3109C8.39129 45.3109 8.50667 45.1954 8.50667 45.0528C8.50667 44.9102 8.39111 44.7947 8.24871 44.7947H7.42951H7.13369L8.87307 41.4613H9.43236C9.57493 41.4613 9.69031 41.3458 9.69031 41.2032C9.69031 41.0606 9.57476 40.9451 9.43236 40.9451H8.71662H8.43431L10.5806 36.8297L12.7269 40.9454H12.4444H11.7287C11.5861 40.9454 11.4706 41.061 11.4706 41.2035C11.4706 41.3461 11.5861 41.4617 11.7287 41.4617H12.288L14.0274 44.795H13.7316H12.9124C12.7698 44.795 12.6542 44.9106 12.6542 45.0531C12.6542 45.1957 12.7698 45.3113 12.9124 45.3113H13.5719L15.3244 48.8233H10.5874L10.5806 48.824L10.5739 48.8233H5.83662L7.58916 45.3113L8.24871 45.3109Z" fill="#F43838" stroke="#F43838" stroke-width="0.2"/>
</g>
<g opacity="0.3">
<path opacity="0.6" d="M40.232 79.768V71.2H33.974V76.324C33.974 78.172 33.582 79.124 33.064 79.768H32.21V82.876H33.512V81H39.98V82.876H41.282V79.768H40.232ZM34.534 79.768C34.926 79.138 35.276 78.144 35.276 76.352V72.418H38.93V79.768H34.534ZM47.3204 77.402C47.8244 77.08 48.0764 76.562 48.0764 75.904C48.0764 74.812 47.3204 74 45.8784 74H42.6584V81H46.1584C47.6564 81 48.3984 80.132 48.3984 79.026C48.3984 78.27 48.0204 77.696 47.3204 77.402ZM45.8224 75.092C46.5224 75.092 46.8864 75.428 46.8864 75.988C46.8864 76.604 46.5224 76.926 45.8224 76.926H43.8484V75.092H45.8224ZM46.0884 79.894H43.8484V78.004H46.0884C46.8024 78.004 47.1944 78.354 47.1944 78.928C47.1944 79.53 46.8164 79.894 46.0884 79.894ZM54.3256 74L52.3096 79.488L49.9156 74H48.6276L51.6656 81.014L51.5536 81.266C51.1896 82.176 50.6016 82.736 49.6636 82.666V83.8C51.0636 83.898 52.1836 83.002 52.7716 81.434L55.6276 74H54.3256ZM62.7207 81L60.0467 77.388L62.5667 74H61.1387L59.3327 76.436L57.5267 74H56.0847L58.6187 77.402L55.9307 81H57.3587L59.3327 78.354L61.2927 81H62.7207ZM68.7358 74L66.7198 79.488L64.3258 74H63.0378L66.0758 81.014L65.9638 81.266C65.5998 82.176 65.0118 82.736 64.0738 82.666V83.8C65.4738 83.898 66.5938 83.002 67.1818 81.434L70.0378 74H68.7358ZM74.9189 73.818C73.7289 73.818 72.8329 74.35 72.2729 75.204V74H71.0549V83.8H72.2729V79.796C72.8329 80.65 73.7289 81.182 74.9189 81.182C76.8649 81.182 78.4609 79.572 78.4609 77.5C78.4609 75.428 76.8649 73.818 74.9189 73.818ZM74.7649 80.006C73.3509 80.006 72.2729 78.928 72.2729 77.5C72.2729 76.072 73.3509 74.994 74.7649 74.994C76.1649 74.994 77.2429 76.072 77.2429 77.5C77.2429 78.928 76.1649 80.006 74.7649 80.006ZM83.2042 81.182C85.2482 81.182 86.9002 79.572 86.9002 77.5C86.9002 75.428 85.2482 73.818 83.2042 73.818C81.1602 73.818 79.5222 75.428 79.5222 77.5C79.5222 79.572 81.1602 81.182 83.2042 81.182ZM83.2042 79.992C81.8182 79.992 80.7402 78.914 80.7402 77.5C80.7402 76.086 81.8182 75.008 83.2042 75.008C84.6042 75.008 85.6822 76.086 85.6822 77.5C85.6822 78.914 84.6042 79.992 83.2042 79.992ZM92.9981 77.402C93.5021 77.08 93.7541 76.562 93.7541 75.904C93.7541 74.812 92.9981 74 91.5561 74H88.3361V81H91.8361C93.3341 81 94.0761 80.132 94.0761 79.026C94.0761 78.27 93.6981 77.696 92.9981 77.402ZM91.5001 75.092C92.2001 75.092 92.5641 75.428 92.5641 75.988C92.5641 76.604 92.2001 76.926 91.5001 76.926H89.5261V75.092H91.5001ZM91.7661 79.894H89.5261V78.004H91.7661C92.4801 78.004 92.8721 78.354 92.8721 78.928C92.8721 79.53 92.4941 79.894 91.7661 79.894ZM100.235 74V76.912H96.6088V74H95.3908V81H96.6088V78.074H100.235V81H101.453V74H100.235ZM104.161 78.06H110.027C110.055 77.878 110.069 77.696 110.069 77.514C110.069 75.554 108.697 73.818 106.583 73.818C104.399 73.818 102.915 75.428 102.915 77.5C102.915 79.6 104.413 81.182 106.667 81.182C108.067 81.182 109.131 80.552 109.747 79.6L108.711 79.012C108.361 79.586 107.661 80.034 106.695 80.034C105.393 80.034 104.399 79.32 104.161 78.06ZM106.583 74.966C107.633 74.966 108.627 75.61 108.837 76.996H104.161C104.357 75.778 105.267 74.966 106.583 74.966ZM116.131 77.402C116.635 77.08 116.887 76.562 116.887 75.904C116.887 74.812 116.131 74 114.689 74H111.469V81H114.969C116.467 81 117.209 80.132 117.209 79.026C117.209 78.27 116.831 77.696 116.131 77.402ZM114.633 75.092C115.333 75.092 115.697 75.428 115.697 75.988C115.697 76.604 115.333 76.926 114.633 76.926H112.659V75.092H114.633ZM114.899 79.894H112.659V78.004H114.899C115.613 78.004 116.005 78.354 116.005 78.928C116.005 79.53 115.627 79.894 114.899 79.894ZM124.32 74V75.204C123.76 74.35 122.864 73.818 121.674 73.818C119.728 73.818 118.132 75.428 118.132 77.5C118.132 79.572 119.728 81.182 121.674 81.182C122.864 81.182 123.76 80.65 124.32 79.796V81H125.538V74H124.32ZM121.828 80.006C120.428 80.006 119.35 78.928 119.35 77.5C119.35 76.072 120.428 74.994 121.828 74.994C123.242 74.994 124.32 76.072 124.32 77.5C124.32 78.928 123.242 80.006 121.828 80.006ZM132.619 74H129.637C128.251 74 127.229 74.98 127.229 76.254C127.229 77.318 127.957 78.158 128.993 78.41L126.949 81H128.433L130.393 78.48H131.415V81H132.619V74ZM129.679 77.388C129.007 77.388 128.433 76.968 128.433 76.268C128.433 75.554 129.007 75.134 129.679 75.134H131.415V77.388H129.679Z" fill="#31456A"/>
<mask id="path-10-inside-1" fill="white">
<path d="M15.75 69.5215H12.7392C12.6011 69.5215 12.4892 69.6333 12.4892 69.7715V72.8984H9.63133C9.49315 72.8984 9.38133 73.0103 9.38133 73.1484V75.7241H6.4624C6.3242 75.7241 6.2124 75.8359 6.2124 75.9741V78.9539H3.41527C3.2771 78.9539 3.16527 79.0657 3.16527 79.2039V81.9785H0.25C0.1118 81.9785 0 82.0903 0 82.2285C0 82.3667 0.1118 82.4785 0.25 82.4785H3.41527C3.55345 82.4785 3.66527 82.3667 3.66527 82.2285V79.4539H6.4624C6.60058 79.4539 6.7124 79.3421 6.7124 79.2039V76.2241H9.63133C9.76952 76.2241 9.88133 76.1123 9.88133 75.9741V73.3984H12.7392C12.8774 73.3984 12.9892 73.2866 12.9892 73.1484V70.0215H15.75C15.8882 70.0215 16 69.9097 16 69.7715C16 69.6333 15.8882 69.5215 15.75 69.5215Z"/>
</mask>
<path d="M15.75 69.5215H12.7392C12.6011 69.5215 12.4892 69.6333 12.4892 69.7715V72.8984H9.63133C9.49315 72.8984 9.38133 73.0103 9.38133 73.1484V75.7241H6.4624C6.3242 75.7241 6.2124 75.8359 6.2124 75.9741V78.9539H3.41527C3.2771 78.9539 3.16527 79.0657 3.16527 79.2039V81.9785H0.25C0.1118 81.9785 0 82.0903 0 82.2285C0 82.3667 0.1118 82.4785 0.25 82.4785H3.41527C3.55345 82.4785 3.66527 82.3667 3.66527 82.2285V79.4539H6.4624C6.60058 79.4539 6.7124 79.3421 6.7124 79.2039V76.2241H9.63133C9.76952 76.2241 9.88133 76.1123 9.88133 75.9741V73.3984H12.7392C12.8774 73.3984 12.9892 73.2866 12.9892 73.1484V70.0215H15.75C15.8882 70.0215 16 69.9097 16 69.7715C16 69.6333 15.8882 69.5215 15.75 69.5215Z" fill="#F43838"/>
<path d="M12.4892 72.8984V73.8984H13.4892V72.8984H12.4892ZM9.38133 75.7241V76.7241H10.3813V75.7241H9.38133ZM6.2124 78.9539V79.9539H7.2124V78.9539H6.2124ZM3.16527 81.9785V82.9785H4.16527V81.9785H3.16527ZM3.66527 79.4539V78.4539H2.66527V79.4539H3.66527ZM6.7124 76.2241V75.2241H5.7124V76.2241H6.7124ZM9.88133 73.3984V72.3984H8.88133V73.3984H9.88133ZM12.9892 70.0215V69.0215H11.9892V70.0215H12.9892ZM15.75 68.5215H12.7392V70.5215H15.75V68.5215ZM12.7392 68.5215C12.0488 68.5215 11.4892 69.081 11.4892 69.7715H13.4892C13.4892 70.1856 13.1534 70.5215 12.7392 70.5215V68.5215ZM11.4892 69.7715V72.8984H13.4892V69.7715H11.4892ZM12.4892 71.8984H9.63133V73.8984H12.4892V71.8984ZM9.63133 71.8984C8.94086 71.8984 8.38133 72.458 8.38133 73.1484H10.3813C10.3813 73.5625 10.0454 73.8984 9.63133 73.8984V71.8984ZM8.38133 73.1484V75.7241H10.3813V73.1484H8.38133ZM9.38133 74.7241H6.4624V76.7241H9.38133V74.7241ZM6.4624 74.7241C5.77191 74.7241 5.2124 75.2836 5.2124 75.9741H7.2124C7.2124 76.3882 6.87648 76.7241 6.4624 76.7241V74.7241ZM5.2124 75.9741V78.9539H7.2124V75.9741H5.2124ZM6.2124 77.9539H3.41527V79.9539H6.2124V77.9539ZM3.41527 77.9539C2.72481 77.9539 2.16527 78.5134 2.16527 79.2039H4.16527C4.16527 79.618 3.82938 79.9539 3.41527 79.9539V77.9539ZM2.16527 79.2039V81.9785H4.16527V79.2039H2.16527ZM3.16527 80.9785H0.25V82.9785H3.16527V80.9785ZM0.25 80.9785C-0.440485 80.9785 -1 81.5381 -1 82.2285H1C1 82.6426 0.664085 82.9785 0.25 82.9785V80.9785ZM-1 82.2285C-1 82.9189 -0.44055 83.4785 0.25 83.4785V81.4785C0.66415 81.4785 1 81.8145 1 82.2285H-1ZM0.25 83.4785H3.41527V81.4785H0.25V83.4785ZM3.41527 83.4785C4.10573 83.4785 4.66527 82.919 4.66527 82.2285H2.66527C2.66527 81.8144 3.00116 81.4785 3.41527 81.4785V83.4785ZM4.66527 82.2285V79.4539H2.66527V82.2285H4.66527ZM3.66527 80.4539H6.4624V78.4539H3.66527V80.4539ZM6.4624 80.4539C7.1528 80.4539 7.7124 79.8944 7.7124 79.2039H5.7124C5.7124 78.7897 6.04835 78.4539 6.4624 78.4539V80.4539ZM7.7124 79.2039V76.2241H5.7124V79.2039H7.7124ZM6.7124 77.2241H9.63133V75.2241H6.7124V77.2241ZM9.63133 77.2241C10.3219 77.2241 10.8813 76.6645 10.8813 75.9741H8.88133C8.88133 75.5601 9.21718 75.2241 9.63133 75.2241V77.2241ZM10.8813 75.9741V73.3984H8.88133V75.9741H10.8813ZM9.88133 74.3984H12.7392V72.3984H9.88133V74.3984ZM12.7392 74.3984C13.4296 74.3984 13.9892 73.839 13.9892 73.1484H11.9892C11.9892 72.7343 12.3252 72.3984 12.7392 72.3984V74.3984ZM13.9892 73.1484V70.0215H11.9892V73.1484H13.9892ZM12.9892 71.0215H15.75V69.0215H12.9892V71.0215ZM15.75 71.0215C16.4404 71.0215 17 70.462 17 69.7715H15C15 69.3573 15.336 69.0215 15.75 69.0215V71.0215ZM17 69.7715C17 69.081 16.4405 68.5215 15.75 68.5215V70.5215C15.3359 70.5215 15 70.1856 15 69.7715H17Z" fill="#F43838" mask="url(#path-10-inside-1)"/>
<mask id="path-12-inside-2" fill="white">
<path d="M2.08398 74.1197H4.90456C5.04273 74.1197 5.15456 74.0079 5.15456 73.8697C5.15456 73.7315 5.04273 73.6197 4.90456 73.6197H2.66523L6.26026 70.047C6.35816 69.9495 6.35866 69.7913 6.26123 69.6934C6.16383 69.5955 6.00563 69.5948 5.90773 69.6925L2.33398 73.244V71.0875C2.33398 70.9493 2.22218 70.8375 2.08398 70.8375C1.94581 70.8375 1.83398 70.9493 1.83398 71.0875V73.8697C1.83398 74.0079 1.94581 74.1197 2.08398 74.1197Z"/>
</mask>
<path d="M2.08398 74.1197H4.90456C5.04273 74.1197 5.15456 74.0079 5.15456 73.8697C5.15456 73.7315 5.04273 73.6197 4.90456 73.6197H2.66523L6.26026 70.047C6.35816 69.9495 6.35866 69.7913 6.26123 69.6934C6.16383 69.5955 6.00563 69.5948 5.90773 69.6925L2.33398 73.244V71.0875C2.33398 70.9493 2.22218 70.8375 2.08398 70.8375C1.94581 70.8375 1.83398 70.9493 1.83398 71.0875V73.8697C1.83398 74.0079 1.94581 74.1197 2.08398 74.1197Z" fill="#F43838"/>
<path d="M2.66523 73.6197L1.96033 72.9104L0.240371 74.6197H2.66523V73.6197ZM6.26026 70.047L6.96517 70.7563L6.96564 70.7558L6.26026 70.047ZM6.26123 69.6934L5.55232 70.3987L5.55241 70.3988L6.26123 69.6934ZM5.90773 69.6925L6.61264 70.4018L6.61394 70.4005L5.90773 69.6925ZM2.33398 73.244H1.33398V75.6477L3.03889 73.9534L2.33398 73.244ZM2.08398 75.1197H4.90456V73.1197H2.08398V75.1197ZM4.90456 75.1197C5.59502 75.1197 6.15456 74.5602 6.15456 73.8697H4.15456C4.15456 73.4556 4.49045 73.1197 4.90456 73.1197V75.1197ZM6.15456 73.8697C6.15456 73.1793 5.59502 72.6197 4.90456 72.6197V74.6197C4.49045 74.6197 4.15456 74.2838 4.15456 73.8697H6.15456ZM4.90456 72.6197H2.66523V74.6197H4.90456V72.6197ZM3.37014 74.329L6.96517 70.7563L5.55535 69.3377L1.96033 72.9104L3.37014 74.329ZM6.96564 70.7558C7.45441 70.2694 7.45766 69.478 6.97006 68.9881L5.55241 70.3988C5.25966 70.1047 5.2619 69.6297 5.55487 69.3381L6.96564 70.7558ZM6.97015 68.9882C6.48474 68.5003 5.69268 68.4946 5.20153 68.9845L6.61394 70.4005C6.31859 70.6951 5.84293 70.6908 5.55232 70.3987L6.97015 68.9882ZM5.20283 68.9832L1.62908 72.5347L3.03889 73.9534L6.61264 70.4018L5.20283 68.9832ZM3.33398 73.244V71.0875H1.33398V73.244H3.33398ZM3.33398 71.0875C3.33398 70.3971 2.77453 69.8375 2.08398 69.8375V71.8375C1.66984 71.8375 1.33398 71.5015 1.33398 71.0875H3.33398ZM2.08398 69.8375C1.39353 69.8375 0.833984 70.397 0.833984 71.0875H2.83398C2.83398 71.5016 2.49809 71.8375 2.08398 71.8375V69.8375ZM0.833984 71.0875V73.8697H2.83398V71.0875H0.833984ZM0.833984 73.8697C0.833984 74.5602 1.39353 75.1197 2.08398 75.1197V73.1197C2.49809 73.1197 2.83398 73.4556 2.83398 73.8697H0.833984Z" fill="#F43838" mask="url(#path-12-inside-2)"/>
</g>
<defs>
<clipPath id="clip0">
<rect y="36" width="16" height="16" fill="white"/>
</clipPath>
</defs>
</svg>
