<svg width="80" height="80" viewBox="0 0 80 80" fill="none" xmlns="http://www.w3.org/2000/svg">
<g clip-path="url(#clip0)">
<g opacity="0.2">
<path d="M39.7802 16.4453C39.6489 16.4579 39.5246 16.5102 39.4238 16.5952C39.3231 16.6803 39.2506 16.794 39.2161 16.9213L35.4785 30.8665L26.6284 25.7714C26.5325 25.7156 26.422 25.6849 26.3111 25.6833C26.27 25.6793 26.2287 25.6793 26.1876 25.6833C25.778 25.7584 25.5342 26.2949 25.7469 26.6529L30.8419 35.4855L16.9144 39.223C16.769 39.2539 16.6386 39.3338 16.545 39.4493C16.4514 39.5648 16.4004 39.709 16.4004 39.8576C16.4004 40.0063 16.4514 40.1505 16.545 40.266C16.6386 40.3815 16.769 40.4614 16.9144 40.4923L30.8419 44.2298L25.7469 53.08C25.6122 53.3242 25.6555 53.6585 25.8527 53.8557C26.0499 54.0529 26.3842 54.0961 26.6284 53.9615L35.4609 48.8488L39.2161 62.794C39.2536 62.9312 39.3352 63.0523 39.4483 63.1386C39.5613 63.2249 39.6997 63.2717 39.8419 63.2717C39.9842 63.2717 40.1225 63.2249 40.2356 63.1386C40.3487 63.0523 40.4302 62.9312 40.4678 62.794L44.2229 48.8488L53.0554 53.9615C53.2996 54.0961 53.634 54.0529 53.8311 53.8557C54.0283 53.6585 54.0716 53.3242 53.9369 53.08L48.8419 44.2298L62.7694 40.4923C62.9149 40.4614 63.0453 40.3815 63.1388 40.266C63.2324 40.1505 63.2834 40.0063 63.2834 39.8576C63.2834 39.709 63.2324 39.5648 63.1388 39.4493C63.0453 39.3338 62.9149 39.2539 62.7694 39.223L48.8419 35.4855L53.9369 26.6529C54.1602 26.2604 53.8244 25.6832 53.3728 25.6833C53.3318 25.6793 53.2904 25.6793 53.2494 25.6833C53.1805 25.7017 53.1146 25.7316 53.0554 25.7714L44.2053 30.8665L40.4678 16.9213C40.4277 16.7736 40.3367 16.6449 40.2109 16.5578C40.0851 16.4707 39.9325 16.4308 39.7802 16.4453ZM39.8331 19.5834L43.9408 34.8332L39.8507 38.9409L35.743 34.8332L39.8331 19.5834ZM28.074 28.0809L35.1259 32.1534L34.4913 34.5158L32.1465 35.1505L28.074 28.0809ZM51.6098 28.0985L47.5549 35.1505L45.1925 34.5158L44.5579 32.1534L51.6098 28.0985ZM34.8086 35.7851L38.934 39.8576L34.8086 43.9477L19.6117 39.8576L34.8086 35.7851ZM44.8752 35.7851L60.0721 39.8576L44.8752 43.9477L40.7675 39.8576L44.8752 35.7851ZM39.8507 40.7744L43.9408 44.8997L39.8331 60.1318L35.743 44.8997L39.8507 40.7744ZM32.1465 44.5824L34.4913 45.2171L35.1259 47.5618L28.074 51.6519L32.1465 44.5824ZM47.5549 44.5824L51.6098 51.6343L44.5579 47.5618L45.1925 45.2171L47.5549 44.5824Z" fill="#31456A"/>
</g>
<path opacity="0.2" d="M42.9844 9.59375C42.8906 10.3958 42.5938 11.0156 42.0938 11.4531C41.5972 11.8872 40.9358 12.1042 40.1094 12.1042C39.2135 12.1042 38.4948 11.783 37.9531 11.1406C37.4149 10.4983 37.1458 9.63889 37.1458 8.5625V7.83333C37.1458 7.12847 37.2708 6.50868 37.5208 5.97396C37.7743 5.43924 38.1319 5.02951 38.5938 4.74479C39.0556 4.4566 39.5903 4.3125 40.1979 4.3125C41.0035 4.3125 41.6493 4.53819 42.1354 4.98958C42.6215 5.4375 42.9045 6.05903 42.9844 6.85417H41.9792C41.8924 6.25 41.7031 5.8125 41.4115 5.54167C41.1233 5.27083 40.7188 5.13542 40.1979 5.13542C39.559 5.13542 39.0573 5.37153 38.6927 5.84375C38.3316 6.31597 38.151 6.98785 38.151 7.85937V8.59375C38.151 9.41667 38.3229 10.0712 38.6667 10.5573C39.0104 11.0434 39.4913 11.2865 40.1094 11.2865C40.6649 11.2865 41.0903 11.1615 41.3854 10.9115C41.684 10.658 41.8819 10.2187 41.9792 9.59375H42.9844Z" fill="#31456A"/>
<path opacity="0.2" d="M9.60417 38.4531C9.60417 38.0503 9.4566 37.7309 9.16146 37.4948C8.86979 37.2552 8.45833 37.1354 7.92708 37.1354C7.48264 37.1354 7.10938 37.2587 6.80729 37.5052C6.50868 37.7483 6.35938 38.0503 6.35938 38.4115H5.35938C5.35938 38.0087 5.46875 37.6476 5.6875 37.3281C5.90972 37.0087 6.21875 36.7604 6.61458 36.5833C7.01042 36.4028 7.44792 36.3125 7.92708 36.3125C8.77431 36.3125 9.43229 36.5035 9.90104 36.8854C10.3698 37.2639 10.6042 37.7917 10.6042 38.4687C10.6042 38.8194 10.4965 39.1389 10.2813 39.4271C10.066 39.7153 9.76563 39.9427 9.38021 40.1094C10.2726 40.408 10.7187 41 10.7187 41.8854C10.7187 42.566 10.4653 43.1059 9.95833 43.5052C9.45139 43.9045 8.77431 44.1042 7.92708 44.1042C7.42361 44.1042 6.96528 44.0156 6.55208 43.8385C6.14236 43.658 5.82292 43.4028 5.59375 43.0729C5.36458 42.7431 5.25 42.3507 5.25 41.8958H6.25C6.25 42.2951 6.40799 42.6285 6.72396 42.8958C7.03993 43.1597 7.44097 43.2917 7.92708 43.2917C8.47222 43.2917 8.90625 43.1649 9.22917 42.9115C9.55556 42.658 9.71875 42.3229 9.71875 41.9062C9.71875 41.0174 9.1684 40.5642 8.06771 40.5469H7.13021V39.724H8.0625C8.56944 39.7135 8.95313 39.599 9.21354 39.3802C9.47396 39.1615 9.60417 38.8524 9.60417 38.4531Z" fill="#31456A"/>
<path opacity="0.2" d="M69.5573 44V36.4167H72.0365C72.8594 36.4167 73.4774 36.5868 73.8906 36.9271C74.3073 37.2674 74.5156 37.7708 74.5156 38.4375C74.5156 38.7917 74.4149 39.1059 74.2135 39.3802C74.0122 39.651 73.7378 39.8611 73.3906 40.0104C73.8003 40.125 74.1233 40.3437 74.3594 40.6667C74.599 40.9861 74.7187 41.3681 74.7187 41.8125C74.7187 42.4931 74.4983 43.0278 74.0573 43.4167C73.6163 43.8056 72.9931 44 72.1875 44H69.5573ZM70.5573 40.4531V43.1823H72.2083C72.6736 43.1823 73.0399 43.0625 73.3073 42.8229C73.5781 42.5799 73.7135 42.2465 73.7135 41.8229C73.7135 40.9097 73.217 40.4531 72.224 40.4531H70.5573ZM70.5573 39.651H72.0677C72.5052 39.651 72.8542 39.5417 73.1146 39.3229C73.3785 39.1042 73.5104 38.8073 73.5104 38.4323C73.5104 38.0156 73.3889 37.7135 73.1458 37.526C72.9028 37.3351 72.533 37.2396 72.0365 37.2396H70.5573V39.651Z" fill="#31456A"/>
<path opacity="0.2" d="M44.3646 72.4531C44.3646 73.1962 44.2396 73.8455 43.9896 74.401C43.7396 74.9531 43.3854 75.375 42.9271 75.6667C42.4688 75.9583 41.934 76.1042 41.3229 76.1042C40.7465 76.1042 40.2292 75.9653 39.7708 75.6875C39.316 75.4097 38.9583 75.0122 38.6979 74.4948C38.441 73.9774 38.2986 73.3733 38.2708 72.6823H37.1823V76H36.1823V68.4167H37.1823V71.8958H38.2656C38.276 71.1806 38.4063 70.5538 38.6563 70.0156C38.9063 69.474 39.2622 69.0556 39.724 68.7604C40.1858 68.4618 40.7153 68.3125 41.3125 68.3125C41.9201 68.3125 42.4549 68.4601 42.9167 68.7552C43.3819 69.0469 43.7396 69.4722 43.9896 70.0312C44.2396 70.5868 44.3646 71.2344 44.3646 71.974V72.4531ZM43.3698 71.9635C43.3698 71.0642 43.1892 70.375 42.8281 69.8958C42.467 69.4132 41.9618 69.1719 41.3125 69.1719C40.6806 69.1719 40.1823 69.4132 39.8177 69.8958C39.4566 70.375 39.2708 71.0417 39.2604 71.8958V72.4531C39.2604 73.3247 39.4427 74.0104 39.8073 74.5104C40.1753 75.0069 40.6806 75.2552 41.3229 75.2552C41.9688 75.2552 42.4688 75.0208 42.8229 74.5521C43.1771 74.0799 43.3594 73.4045 43.3698 72.526V71.9635Z" fill="#31456A"/>
</g>
<defs>
<clipPath id="clip0">
<rect width="80" height="80" fill="white"/>
</clipPath>
</defs>
</svg>
